<svg width="34" height="40" viewBox="0 0 34 40" fill="none" xmlns="http://www.w3.org/2000/svg">
<path d="M14.2593 34.5737C14.9106 34.5737 15.4204 34.064 15.4204 33.4268V6.14014C15.4204 5.50293 14.9106 4.99316 14.2593 4.99316C13.6221 4.99316 13.1406 5.50293 13.1406 6.14014V33.4268C13.1406 34.064 13.6221 34.5737 14.2593 34.5737ZM23.8032 31.4302C24.4404 31.4302 24.936 30.9204 24.936 30.2974V9.26953C24.936 8.64648 24.4404 8.12256 23.8032 8.12256C23.1377 8.12256 22.6562 8.64648 22.6562 9.26953V30.2974C22.6562 30.9204 23.1377 31.4302 23.8032 31.4302ZM9.50146 28.8672C10.1528 28.8672 10.6484 28.3574 10.6484 27.7202V11.8467C10.6484 11.2095 10.1528 10.6855 9.50146 10.6855C8.86426 10.6855 8.36865 11.2095 8.36865 11.8467V27.7202C8.36865 28.3574 8.86426 28.8672 9.50146 28.8672ZM19.0312 27.1396C19.6826 27.1396 20.1782 26.644 20.1782 26.0068V13.5601C20.1782 12.9229 19.6826 12.4131 19.0312 12.4131C18.3799 12.4131 17.8984 12.9229 17.8984 13.5601V26.0068C17.8984 26.644 18.3799 27.1396 19.0312 27.1396ZM28.561 24.2935C29.1982 24.2935 29.708 23.7837 29.708 23.1606V16.4062C29.708 15.7832 29.1982 15.2593 28.561 15.2593C27.9097 15.2593 27.4282 15.7832 27.4282 16.4062V23.1606C27.4282 23.7837 27.9097 24.2935 28.561 24.2935ZM4.72949 23.0757C5.39502 23.0757 5.89062 22.5659 5.89062 21.9287V17.6382C5.89062 17.001 5.39502 16.4771 4.72949 16.4771C4.09229 16.4771 3.61084 17.001 3.61084 17.6382V21.9287C3.61084 22.5659 4.09229 23.0757 4.72949 23.0757Z" fill="url(#paint0_linear_111_368)"/>
<defs>
<linearGradient id="paint0_linear_111_368" x1="17" y1="1.99699e-07" x2="17" y2="40" gradientUnits="userSpaceOnUse">
<stop stop-color="#7C76BE"/>
<stop offset="1" stop-color="#928AC9"/>
</linearGradient>
</defs>
</svg>
